<?xml version="1.0" encoding="UTF-8"?>
<!DOCTYPE svg PUBLIC "-//W3C//DTD SVG 1.1//EN" "http://www.w3.org/Graphics/SVG/1.1/DTD/svg11.dtd">
<svg xmlns="http://www.w3.org/2000/svg" version="1.1" width="512px" height="512px" style="shape-rendering:geometricPrecision; text-rendering:geometricPrecision; image-rendering:optimizeQuality; fill-rule:evenodd; clip-rule:evenodd" xmlns:xlink="http://www.w3.org/1999/xlink">
<g><path style="opacity:1" fill="#00e0f6" d="M 510.5,343.5 C 340.5,343.5 170.5,343.5 0.5,343.5C 0.333335,236.833 0.500002,130.166 1,23.5C 4.5,12 12,4.5 23.5,1C 178.167,0.333333 332.833,0.333333 487.5,1C 499,4.5 506.5,12 510,23.5C 510.5,130.166 510.667,236.833 510.5,343.5 Z"/></g>
<g><path style="opacity:1" fill="#b84f3c" d="M 233.5,225.5 C 227.509,210.842 217.175,200.509 202.5,194.5C 251.583,146.918 300.25,98.7509 348.5,50C 359.795,40.9669 370.629,41.4669 381,51.5C 385.615,59.8058 385.615,68.1392 381,76.5C 331.249,125.75 282.082,175.417 233.5,225.5 Z"/></g>
<g><path style="opacity:1" fill="#fe6767" d="M 202.5,194.5 C 217.175,200.509 227.509,210.842 233.5,225.5C 241.893,264.869 226.227,288.036 186.5,295C 170.949,298.055 155.282,300.222 139.5,301.5C 135.167,301.5 130.833,301.5 126.5,301.5C 126.5,299.833 126.5,298.167 126.5,296.5C 126.993,270.876 131.16,245.876 139,221.5C 147.747,202.694 162.581,192.694 183.5,191.5C 189.958,191.851 196.291,192.851 202.5,194.5 Z"/></g>
<g><path style="opacity:1" fill="#7baeba" d="M 126.5,296.5 C 126.5,298.167 126.5,299.833 126.5,301.5C 130.833,301.5 135.167,301.5 139.5,301.5C 135.03,302.486 130.363,302.819 125.5,302.5C 125.205,300.265 125.539,298.265 126.5,296.5 Z"/></g>
<g><path style="opacity:0.997" fill="#0e5384" d="M 0.5,343.5 C 170.5,343.5 340.5,343.5 510.5,343.5C 510.667,363.836 510.5,384.169 510,404.5C 506.401,416.433 498.568,423.933 486.5,427C 423.501,427.5 360.501,427.667 297.5,427.5C 269.5,427.5 241.5,427.5 213.5,427.5C 150.499,427.667 87.4991,427.5 24.5,427C 12.4323,423.933 4.59899,416.433 1,404.5C 0.500045,384.169 0.333378,363.836 0.5,343.5 Z"/></g>
<g><path style="opacity:1" fill="#cee3e9" d="M 250.5,375.5 C 260.988,374.487 265.488,379.154 264,389.5C 261.081,395.025 256.581,396.858 250.5,395C 244.975,392.081 243.142,387.581 245,381.5C 246.36,378.977 248.193,376.977 250.5,375.5 Z"/></g>
<g><path style="opacity:0.991" fill="#d2e6ea" d="M 213.5,427.5 C 241.5,427.5 269.5,427.5 297.5,427.5C 297.5,441.167 297.5,454.833 297.5,468.5C 269.5,468.5 241.5,468.5 213.5,468.5C 213.5,454.833 213.5,441.167 213.5,427.5 Z"/></g>
<g><path style="opacity:0.993" fill="#0f5384" d="M 213.5,468.5 C 241.5,468.5 269.5,468.5 297.5,468.5C 318.836,468.333 340.169,468.5 361.5,469C 383.475,474.142 395.142,487.975 396.5,510.5C 302.5,510.5 208.5,510.5 114.5,510.5C 115.858,487.975 127.525,474.142 149.5,469C 170.831,468.5 192.164,468.333 213.5,468.5 Z"/></g>
</svg>
